<mxfile host="app.diagrams.net" agent="Mozilla/5.0 (Windows NT 10.0; Win64; x64) AppleWebKit/537.36 (KHTML, like Gecko) Chrome/140.0.0.0 Safari/537.36 Edg/140.0.0.0" version="28.2.3">
  <diagram name="Page-1" id="UdF87POcS-RXHYFzsMQy">
    <mxGraphModel dx="864" dy="482" grid="1" gridSize="10" guides="1" tooltips="1" connect="1" arrows="1" fold="1" page="1" pageScale="1" pageWidth="850" pageHeight="1100" math="0" shadow="0">
      <root>
        <mxCell id="0" />
        <mxCell id="1" parent="0" />
        <mxCell id="tJ4U4Pab3lAN5FSXyf53-1" value="Branch" style="rounded=0;whiteSpace=wrap;html=1;" vertex="1" parent="1">
          <mxGeometry x="650" y="420" width="110" height="50" as="geometry" />
        </mxCell>
        <mxCell id="tJ4U4Pab3lAN5FSXyf53-2" value="Employee" style="rounded=0;whiteSpace=wrap;html=1;" vertex="1" parent="1">
          <mxGeometry x="1160" y="420" width="110" height="50" as="geometry" />
        </mxCell>
        <mxCell id="tJ4U4Pab3lAN5FSXyf53-3" value="District" style="html=1;align=center;verticalAlign=top;rounded=1;absoluteArcSize=1;arcSize=140;dashed=0;whiteSpace=wrap;" vertex="1" parent="1">
          <mxGeometry x="690" y="210" width="90" height="30" as="geometry" />
        </mxCell>
        <mxCell id="tJ4U4Pab3lAN5FSXyf53-4" value="Address" style="html=1;align=center;verticalAlign=top;rounded=1;absoluteArcSize=1;arcSize=100;dashed=0;whiteSpace=wrap;" vertex="1" parent="1">
          <mxGeometry x="650" y="300" width="100" height="40" as="geometry" />
        </mxCell>
        <mxCell id="tJ4U4Pab3lAN5FSXyf53-5" value="City" style="html=1;align=center;verticalAlign=top;rounded=1;absoluteArcSize=1;arcSize=140;dashed=0;whiteSpace=wrap;" vertex="1" parent="1">
          <mxGeometry x="770" y="240" width="90" height="30" as="geometry" />
        </mxCell>
        <mxCell id="tJ4U4Pab3lAN5FSXyf53-6" value="Street" style="html=1;align=center;verticalAlign=top;rounded=1;absoluteArcSize=1;arcSize=140;dashed=0;whiteSpace=wrap;" vertex="1" parent="1">
          <mxGeometry x="595" y="220" width="90" height="30" as="geometry" />
        </mxCell>
        <mxCell id="tJ4U4Pab3lAN5FSXyf53-7" value="No." style="html=1;align=center;verticalAlign=top;rounded=1;absoluteArcSize=1;arcSize=140;dashed=0;whiteSpace=wrap;" vertex="1" parent="1">
          <mxGeometry x="540" y="260" width="90" height="30" as="geometry" />
        </mxCell>
        <mxCell id="tJ4U4Pab3lAN5FSXyf53-8" value="Region" style="html=1;align=center;verticalAlign=top;rounded=1;absoluteArcSize=1;arcSize=90;dashed=0;whiteSpace=wrap;" vertex="1" parent="1">
          <mxGeometry x="785" y="280" width="90" height="30" as="geometry" />
        </mxCell>
        <mxCell id="tJ4U4Pab3lAN5FSXyf53-9" value="Email" style="html=1;align=center;verticalAlign=top;rounded=1;absoluteArcSize=1;arcSize=140;dashed=0;whiteSpace=wrap;" vertex="1" parent="1">
          <mxGeometry x="760" y="340" width="100" height="40" as="geometry" />
        </mxCell>
        <mxCell id="tJ4U4Pab3lAN5FSXyf53-10" value="&lt;u&gt;Name&lt;/u&gt;" style="html=1;align=center;verticalAlign=top;rounded=1;absoluteArcSize=1;arcSize=140;dashed=0;whiteSpace=wrap;" vertex="1" parent="1">
          <mxGeometry x="520" y="340" width="100" height="40" as="geometry" />
        </mxCell>
        <mxCell id="tJ4U4Pab3lAN5FSXyf53-11" value="Num. Of Emp" style="html=1;align=center;verticalAlign=top;rounded=1;absoluteArcSize=1;arcSize=116;dashed=1;whiteSpace=wrap;" vertex="1" parent="1">
          <mxGeometry x="580" y="510" width="120" height="40" as="geometry" />
        </mxCell>
        <mxCell id="tJ4U4Pab3lAN5FSXyf53-12" value="Fax" style="html=1;align=center;verticalAlign=top;rounded=1;absoluteArcSize=1;arcSize=100;dashed=0;whiteSpace=wrap;" vertex="1" parent="1">
          <mxGeometry x="495" y="410" width="100" height="40" as="geometry" />
        </mxCell>
        <mxCell id="tJ4U4Pab3lAN5FSXyf53-13" value="Fax" style="html=1;align=center;verticalAlign=top;rounded=1;absoluteArcSize=1;arcSize=100;dashed=0;whiteSpace=wrap;" vertex="1" parent="1">
          <mxGeometry x="505" y="415" width="70" height="30" as="geometry" />
        </mxCell>
        <mxCell id="tJ4U4Pab3lAN5FSXyf53-14" value="" style="html=1;align=center;verticalAlign=top;rounded=1;absoluteArcSize=1;arcSize=100;dashed=0;whiteSpace=wrap;" vertex="1" parent="1">
          <mxGeometry x="500" y="460" width="100" height="40" as="geometry" />
        </mxCell>
        <mxCell id="tJ4U4Pab3lAN5FSXyf53-15" value="Phone" style="html=1;align=center;verticalAlign=top;rounded=1;absoluteArcSize=1;arcSize=100;dashed=0;whiteSpace=wrap;" vertex="1" parent="1">
          <mxGeometry x="505" y="465" width="90" height="30" as="geometry" />
        </mxCell>
        <mxCell id="tJ4U4Pab3lAN5FSXyf53-16" value="" style="endArrow=none;html=1;rounded=0;exitX=0.5;exitY=0;exitDx=0;exitDy=0;entryX=0.58;entryY=0.95;entryDx=0;entryDy=0;entryPerimeter=0;" edge="1" parent="1" source="tJ4U4Pab3lAN5FSXyf53-1" target="tJ4U4Pab3lAN5FSXyf53-4">
          <mxGeometry width="50" height="50" relative="1" as="geometry">
            <mxPoint x="800" y="380" as="sourcePoint" />
            <mxPoint x="850" y="330" as="targetPoint" />
          </mxGeometry>
        </mxCell>
        <mxCell id="tJ4U4Pab3lAN5FSXyf53-17" value="" style="endArrow=none;html=1;rounded=0;entryX=0.59;entryY=0.95;entryDx=0;entryDy=0;entryPerimeter=0;" edge="1" parent="1" target="tJ4U4Pab3lAN5FSXyf53-9">
          <mxGeometry width="50" height="50" relative="1" as="geometry">
            <mxPoint x="730" y="420" as="sourcePoint" />
            <mxPoint x="703" y="370" as="targetPoint" />
          </mxGeometry>
        </mxCell>
        <mxCell id="tJ4U4Pab3lAN5FSXyf53-18" value="" style="endArrow=none;html=1;rounded=0;entryX=0;entryY=0.75;entryDx=0;entryDy=0;exitX=1;exitY=0.5;exitDx=0;exitDy=0;" edge="1" parent="1" source="tJ4U4Pab3lAN5FSXyf53-4" target="tJ4U4Pab3lAN5FSXyf53-8">
          <mxGeometry width="50" height="50" relative="1" as="geometry">
            <mxPoint x="780" y="442" as="sourcePoint" />
            <mxPoint x="869" y="400" as="targetPoint" />
          </mxGeometry>
        </mxCell>
        <mxCell id="tJ4U4Pab3lAN5FSXyf53-19" value="" style="endArrow=none;html=1;rounded=0;entryX=0.111;entryY=1.1;entryDx=0;entryDy=0;exitX=0.93;exitY=0.1;exitDx=0;exitDy=0;exitPerimeter=0;entryPerimeter=0;" edge="1" parent="1" source="tJ4U4Pab3lAN5FSXyf53-4" target="tJ4U4Pab3lAN5FSXyf53-5">
          <mxGeometry width="50" height="50" relative="1" as="geometry">
            <mxPoint x="760" y="327" as="sourcePoint" />
            <mxPoint x="795" y="310" as="targetPoint" />
          </mxGeometry>
        </mxCell>
        <mxCell id="tJ4U4Pab3lAN5FSXyf53-20" value="" style="endArrow=none;html=1;rounded=0;entryX=0.5;entryY=1;entryDx=0;entryDy=0;exitX=0.75;exitY=0;exitDx=0;exitDy=0;" edge="1" parent="1" source="tJ4U4Pab3lAN5FSXyf53-4" target="tJ4U4Pab3lAN5FSXyf53-3">
          <mxGeometry width="50" height="50" relative="1" as="geometry">
            <mxPoint x="760" y="321" as="sourcePoint" />
            <mxPoint x="797" y="290" as="targetPoint" />
          </mxGeometry>
        </mxCell>
        <mxCell id="tJ4U4Pab3lAN5FSXyf53-21" value="" style="endArrow=none;html=1;rounded=0;entryX=0.833;entryY=0.867;entryDx=0;entryDy=0;exitX=0.5;exitY=0;exitDx=0;exitDy=0;entryPerimeter=0;" edge="1" parent="1" source="tJ4U4Pab3lAN5FSXyf53-4" target="tJ4U4Pab3lAN5FSXyf53-6">
          <mxGeometry width="50" height="50" relative="1" as="geometry">
            <mxPoint x="720" y="330" as="sourcePoint" />
            <mxPoint x="730" y="270" as="targetPoint" />
          </mxGeometry>
        </mxCell>
        <mxCell id="tJ4U4Pab3lAN5FSXyf53-22" value="" style="endArrow=none;html=1;rounded=0;entryX=1;entryY=0.5;entryDx=0;entryDy=0;exitX=0.25;exitY=0;exitDx=0;exitDy=0;" edge="1" parent="1" source="tJ4U4Pab3lAN5FSXyf53-4" target="tJ4U4Pab3lAN5FSXyf53-7">
          <mxGeometry width="50" height="50" relative="1" as="geometry">
            <mxPoint x="710" y="314" as="sourcePoint" />
            <mxPoint x="680" y="260" as="targetPoint" />
          </mxGeometry>
        </mxCell>
        <mxCell id="tJ4U4Pab3lAN5FSXyf53-23" value="" style="endArrow=none;html=1;rounded=0;entryX=1;entryY=0.5;entryDx=0;entryDy=0;exitX=0.25;exitY=0;exitDx=0;exitDy=0;" edge="1" parent="1" source="tJ4U4Pab3lAN5FSXyf53-1" target="tJ4U4Pab3lAN5FSXyf53-10">
          <mxGeometry width="50" height="50" relative="1" as="geometry">
            <mxPoint x="685" y="295" as="sourcePoint" />
            <mxPoint x="640" y="270" as="targetPoint" />
          </mxGeometry>
        </mxCell>
        <mxCell id="tJ4U4Pab3lAN5FSXyf53-24" value="" style="endArrow=none;html=1;rounded=0;entryX=1;entryY=0.5;entryDx=0;entryDy=0;exitX=0;exitY=0.25;exitDx=0;exitDy=0;" edge="1" parent="1" source="tJ4U4Pab3lAN5FSXyf53-1" target="tJ4U4Pab3lAN5FSXyf53-12">
          <mxGeometry width="50" height="50" relative="1" as="geometry">
            <mxPoint x="718" y="450" as="sourcePoint" />
            <mxPoint x="660" y="390" as="targetPoint" />
          </mxGeometry>
        </mxCell>
        <mxCell id="tJ4U4Pab3lAN5FSXyf53-25" value="" style="endArrow=none;html=1;rounded=0;entryX=1;entryY=0.5;entryDx=0;entryDy=0;exitX=0;exitY=0.5;exitDx=0;exitDy=0;" edge="1" parent="1" source="tJ4U4Pab3lAN5FSXyf53-1" target="tJ4U4Pab3lAN5FSXyf53-14">
          <mxGeometry width="50" height="50" relative="1" as="geometry">
            <mxPoint x="665" y="433" as="sourcePoint" />
            <mxPoint x="610" y="430" as="targetPoint" />
          </mxGeometry>
        </mxCell>
        <mxCell id="tJ4U4Pab3lAN5FSXyf53-26" value="" style="endArrow=none;html=1;rounded=0;entryX=0.425;entryY=0;entryDx=0;entryDy=0;exitX=0.173;exitY=1;exitDx=0;exitDy=0;exitPerimeter=0;entryPerimeter=0;" edge="1" parent="1" source="tJ4U4Pab3lAN5FSXyf53-1" target="tJ4U4Pab3lAN5FSXyf53-11">
          <mxGeometry width="50" height="50" relative="1" as="geometry">
            <mxPoint x="670" y="460" as="sourcePoint" />
            <mxPoint x="620" y="495" as="targetPoint" />
          </mxGeometry>
        </mxCell>
        <mxCell id="tJ4U4Pab3lAN5FSXyf53-27" value="Address" style="html=1;align=center;verticalAlign=top;rounded=1;absoluteArcSize=1;arcSize=140;dashed=0;whiteSpace=wrap;" vertex="1" parent="1">
          <mxGeometry x="1235" y="280" width="100" height="40" as="geometry" />
        </mxCell>
        <mxCell id="tJ4U4Pab3lAN5FSXyf53-28" value="FName" style="html=1;align=center;verticalAlign=top;rounded=1;absoluteArcSize=1;arcSize=140;dashed=0;whiteSpace=wrap;" vertex="1" parent="1">
          <mxGeometry x="1040" y="340" width="100" height="40" as="geometry" />
        </mxCell>
        <mxCell id="tJ4U4Pab3lAN5FSXyf53-29" value="&lt;u&gt;Code&lt;/u&gt;" style="html=1;align=center;verticalAlign=top;rounded=1;absoluteArcSize=1;arcSize=140;dashed=0;whiteSpace=wrap;" vertex="1" parent="1">
          <mxGeometry x="1055" y="510" width="100" height="40" as="geometry" />
        </mxCell>
        <mxCell id="tJ4U4Pab3lAN5FSXyf53-30" value="Email" style="html=1;align=center;verticalAlign=top;rounded=1;absoluteArcSize=1;arcSize=140;dashed=0;whiteSpace=wrap;" vertex="1" parent="1">
          <mxGeometry x="1340" y="320" width="100" height="40" as="geometry" />
        </mxCell>
        <mxCell id="tJ4U4Pab3lAN5FSXyf53-31" value="DOB" style="html=1;align=center;verticalAlign=top;rounded=1;absoluteArcSize=1;arcSize=140;dashed=0;whiteSpace=wrap;" vertex="1" parent="1">
          <mxGeometry x="1335" y="380" width="100" height="40" as="geometry" />
        </mxCell>
        <mxCell id="tJ4U4Pab3lAN5FSXyf53-32" value="LName" style="html=1;align=center;verticalAlign=top;rounded=1;absoluteArcSize=1;arcSize=140;dashed=0;whiteSpace=wrap;" vertex="1" parent="1">
          <mxGeometry x="1110" y="280" width="100" height="40" as="geometry" />
        </mxCell>
        <mxCell id="tJ4U4Pab3lAN5FSXyf53-33" value="DOB" style="html=1;align=center;verticalAlign=top;rounded=1;absoluteArcSize=1;arcSize=140;dashed=0;whiteSpace=wrap;" vertex="1" parent="1">
          <mxGeometry x="1330" y="445" width="100" height="40" as="geometry" />
        </mxCell>
        <mxCell id="tJ4U4Pab3lAN5FSXyf53-34" value="Phone" style="html=1;align=center;verticalAlign=top;rounded=1;absoluteArcSize=1;arcSize=140;dashed=0;whiteSpace=wrap;" vertex="1" parent="1">
          <mxGeometry x="1340" y="450" width="80" height="30" as="geometry" />
        </mxCell>
        <mxCell id="tJ4U4Pab3lAN5FSXyf53-35" value="Street" style="html=1;align=center;verticalAlign=top;rounded=1;absoluteArcSize=1;arcSize=140;dashed=0;whiteSpace=wrap;" vertex="1" parent="1">
          <mxGeometry x="1160" y="220" width="90" height="30" as="geometry" />
        </mxCell>
        <mxCell id="tJ4U4Pab3lAN5FSXyf53-36" value="District" style="html=1;align=center;verticalAlign=top;rounded=1;absoluteArcSize=1;arcSize=140;dashed=0;whiteSpace=wrap;" vertex="1" parent="1">
          <mxGeometry x="1360" y="210" width="90" height="30" as="geometry" />
        </mxCell>
        <mxCell id="tJ4U4Pab3lAN5FSXyf53-37" value="City" style="html=1;align=center;verticalAlign=top;rounded=1;absoluteArcSize=1;arcSize=140;dashed=0;whiteSpace=wrap;" vertex="1" parent="1">
          <mxGeometry x="1360" y="260" width="90" height="30" as="geometry" />
        </mxCell>
        <mxCell id="tJ4U4Pab3lAN5FSXyf53-38" value="No." style="html=1;align=center;verticalAlign=top;rounded=1;absoluteArcSize=1;arcSize=140;dashed=0;whiteSpace=wrap;" vertex="1" parent="1">
          <mxGeometry x="1250" y="190" width="90" height="30" as="geometry" />
        </mxCell>
        <mxCell id="tJ4U4Pab3lAN5FSXyf53-39" value="" style="endArrow=none;html=1;rounded=0;entryX=0.75;entryY=1;entryDx=0;entryDy=0;exitX=0.5;exitY=0;exitDx=0;exitDy=0;" edge="1" parent="1" source="tJ4U4Pab3lAN5FSXyf53-2" target="tJ4U4Pab3lAN5FSXyf53-28">
          <mxGeometry width="50" height="50" relative="1" as="geometry">
            <mxPoint x="790" y="432" as="sourcePoint" />
            <mxPoint x="879" y="390" as="targetPoint" />
          </mxGeometry>
        </mxCell>
        <mxCell id="tJ4U4Pab3lAN5FSXyf53-40" value="" style="endArrow=none;html=1;rounded=0;entryX=0.5;entryY=1;entryDx=0;entryDy=0;exitX=0.5;exitY=0;exitDx=0;exitDy=0;" edge="1" parent="1" source="tJ4U4Pab3lAN5FSXyf53-2" target="tJ4U4Pab3lAN5FSXyf53-32">
          <mxGeometry width="50" height="50" relative="1" as="geometry">
            <mxPoint x="1280" y="440" as="sourcePoint" />
            <mxPoint x="1180" y="400" as="targetPoint" />
          </mxGeometry>
        </mxCell>
        <mxCell id="tJ4U4Pab3lAN5FSXyf53-41" value="" style="endArrow=none;html=1;rounded=0;entryX=0.34;entryY=1.1;entryDx=0;entryDy=0;exitX=0.6;exitY=-0.04;exitDx=0;exitDy=0;exitPerimeter=0;entryPerimeter=0;" edge="1" parent="1" source="tJ4U4Pab3lAN5FSXyf53-2" target="tJ4U4Pab3lAN5FSXyf53-27">
          <mxGeometry width="50" height="50" relative="1" as="geometry">
            <mxPoint x="1245" y="480" as="sourcePoint" />
            <mxPoint x="1190" y="380" as="targetPoint" />
          </mxGeometry>
        </mxCell>
        <mxCell id="tJ4U4Pab3lAN5FSXyf53-42" value="" style="endArrow=none;html=1;rounded=0;entryX=0.75;entryY=1;entryDx=0;entryDy=0;exitX=0.5;exitY=0;exitDx=0;exitDy=0;" edge="1" parent="1" source="tJ4U4Pab3lAN5FSXyf53-27" target="tJ4U4Pab3lAN5FSXyf53-35">
          <mxGeometry width="50" height="50" relative="1" as="geometry">
            <mxPoint x="1260" y="434" as="sourcePoint" />
            <mxPoint x="1303" y="340" as="targetPoint" />
          </mxGeometry>
        </mxCell>
        <mxCell id="tJ4U4Pab3lAN5FSXyf53-43" value="" style="endArrow=none;html=1;rounded=0;entryX=0.5;entryY=1;entryDx=0;entryDy=0;exitX=0.67;exitY=0.05;exitDx=0;exitDy=0;exitPerimeter=0;" edge="1" parent="1" source="tJ4U4Pab3lAN5FSXyf53-27" target="tJ4U4Pab3lAN5FSXyf53-38">
          <mxGeometry width="50" height="50" relative="1" as="geometry">
            <mxPoint x="1317" y="290" as="sourcePoint" />
            <mxPoint x="1260" y="260" as="targetPoint" />
          </mxGeometry>
        </mxCell>
        <mxCell id="tJ4U4Pab3lAN5FSXyf53-44" value="" style="endArrow=none;html=1;rounded=0;entryX=0;entryY=0.5;entryDx=0;entryDy=0;exitX=0.75;exitY=0;exitDx=0;exitDy=0;" edge="1" parent="1" source="tJ4U4Pab3lAN5FSXyf53-27" target="tJ4U4Pab3lAN5FSXyf53-36">
          <mxGeometry width="50" height="50" relative="1" as="geometry">
            <mxPoint x="1307" y="312" as="sourcePoint" />
            <mxPoint x="1300" y="250" as="targetPoint" />
          </mxGeometry>
        </mxCell>
        <mxCell id="tJ4U4Pab3lAN5FSXyf53-45" value="" style="endArrow=none;html=1;rounded=0;entryX=0;entryY=0.5;entryDx=0;entryDy=0;exitX=1;exitY=0.25;exitDx=0;exitDy=0;" edge="1" parent="1" source="tJ4U4Pab3lAN5FSXyf53-27" target="tJ4U4Pab3lAN5FSXyf53-37">
          <mxGeometry width="50" height="50" relative="1" as="geometry">
            <mxPoint x="1330" y="305" as="sourcePoint" />
            <mxPoint x="1380" y="250" as="targetPoint" />
          </mxGeometry>
        </mxCell>
        <mxCell id="tJ4U4Pab3lAN5FSXyf53-46" value="" style="endArrow=none;html=1;rounded=0;entryX=0;entryY=0.5;entryDx=0;entryDy=0;exitX=0.75;exitY=0;exitDx=0;exitDy=0;" edge="1" parent="1" source="tJ4U4Pab3lAN5FSXyf53-2" target="tJ4U4Pab3lAN5FSXyf53-30">
          <mxGeometry width="50" height="50" relative="1" as="geometry">
            <mxPoint x="1250" y="434" as="sourcePoint" />
            <mxPoint x="1293" y="340" as="targetPoint" />
          </mxGeometry>
        </mxCell>
        <mxCell id="tJ4U4Pab3lAN5FSXyf53-47" value="" style="endArrow=none;html=1;rounded=0;entryX=0;entryY=0.5;entryDx=0;entryDy=0;exitX=1;exitY=0;exitDx=0;exitDy=0;" edge="1" parent="1" source="tJ4U4Pab3lAN5FSXyf53-2" target="tJ4U4Pab3lAN5FSXyf53-31">
          <mxGeometry width="50" height="50" relative="1" as="geometry">
            <mxPoint x="1260" y="480" as="sourcePoint" />
            <mxPoint x="1357" y="400" as="targetPoint" />
          </mxGeometry>
        </mxCell>
        <mxCell id="tJ4U4Pab3lAN5FSXyf53-48" value="" style="endArrow=none;html=1;rounded=0;entryX=0;entryY=0.25;entryDx=0;entryDy=0;exitX=1;exitY=0.5;exitDx=0;exitDy=0;" edge="1" parent="1" source="tJ4U4Pab3lAN5FSXyf53-2" target="tJ4U4Pab3lAN5FSXyf53-33">
          <mxGeometry width="50" height="50" relative="1" as="geometry">
            <mxPoint x="1310" y="460" as="sourcePoint" />
            <mxPoint x="1375" y="440" as="targetPoint" />
          </mxGeometry>
        </mxCell>
        <mxCell id="tJ4U4Pab3lAN5FSXyf53-49" value="" style="endArrow=none;html=1;rounded=0;entryX=0.59;entryY=0;entryDx=0;entryDy=0;exitX=0.164;exitY=1.04;exitDx=0;exitDy=0;exitPerimeter=0;entryPerimeter=0;" edge="1" parent="1" source="tJ4U4Pab3lAN5FSXyf53-2" target="tJ4U4Pab3lAN5FSXyf53-29">
          <mxGeometry width="50" height="50" relative="1" as="geometry">
            <mxPoint x="1240" y="430" as="sourcePoint" />
            <mxPoint x="1140" y="390" as="targetPoint" />
          </mxGeometry>
        </mxCell>
        <mxCell id="tJ4U4Pab3lAN5FSXyf53-50" value="work for" style="rhombus;whiteSpace=wrap;html=1;" vertex="1" parent="1">
          <mxGeometry x="900" y="400" width="90" height="30" as="geometry" />
        </mxCell>
        <mxCell id="tJ4U4Pab3lAN5FSXyf53-51" value="" style="endArrow=none;html=1;rounded=0;entryX=0.889;entryY=0.667;entryDx=0;entryDy=0;exitX=0;exitY=0.5;exitDx=0;exitDy=0;entryPerimeter=0;" edge="1" parent="1" source="tJ4U4Pab3lAN5FSXyf53-2" target="tJ4U4Pab3lAN5FSXyf53-50">
          <mxGeometry width="50" height="50" relative="1" as="geometry">
            <mxPoint x="1130" y="465" as="sourcePoint" />
            <mxPoint x="1030" y="425" as="targetPoint" />
          </mxGeometry>
        </mxCell>
        <mxCell id="tJ4U4Pab3lAN5FSXyf53-52" value="" style="endArrow=none;html=1;rounded=0;entryX=1;entryY=1;entryDx=0;entryDy=0;" edge="1" parent="1" target="tJ4U4Pab3lAN5FSXyf53-50">
          <mxGeometry width="50" height="50" relative="1" as="geometry">
            <mxPoint x="1161" y="450" as="sourcePoint" />
            <mxPoint x="980" y="425" as="targetPoint" />
          </mxGeometry>
        </mxCell>
        <mxCell id="tJ4U4Pab3lAN5FSXyf53-53" value="" style="endArrow=none;html=1;rounded=0;exitX=1;exitY=0.5;exitDx=0;exitDy=0;" edge="1" parent="1" source="tJ4U4Pab3lAN5FSXyf53-1" target="tJ4U4Pab3lAN5FSXyf53-50">
          <mxGeometry width="50" height="50" relative="1" as="geometry">
            <mxPoint x="800" y="432" as="sourcePoint" />
            <mxPoint x="889" y="390" as="targetPoint" />
          </mxGeometry>
        </mxCell>
        <mxCell id="tJ4U4Pab3lAN5FSXyf53-54" value="1" style="text;html=1;align=center;verticalAlign=middle;resizable=0;points=[];autosize=1;strokeColor=none;fillColor=none;" vertex="1" parent="1">
          <mxGeometry x="840" y="400" width="30" height="30" as="geometry" />
        </mxCell>
        <mxCell id="tJ4U4Pab3lAN5FSXyf53-55" value="n" style="text;html=1;align=center;verticalAlign=middle;resizable=0;points=[];autosize=1;strokeColor=none;fillColor=none;" vertex="1" parent="1">
          <mxGeometry x="1010" y="400" width="30" height="30" as="geometry" />
        </mxCell>
        <mxCell id="tJ4U4Pab3lAN5FSXyf53-56" value="Manage" style="rhombus;whiteSpace=wrap;html=1;" vertex="1" parent="1">
          <mxGeometry x="900" y="465" width="90" height="30" as="geometry" />
        </mxCell>
        <mxCell id="tJ4U4Pab3lAN5FSXyf53-57" value="" style="endArrow=none;html=1;rounded=0;exitX=0;exitY=0.5;exitDx=0;exitDy=0;" edge="1" parent="1" source="tJ4U4Pab3lAN5FSXyf53-56">
          <mxGeometry width="50" height="50" relative="1" as="geometry">
            <mxPoint x="942" y="490" as="sourcePoint" />
            <mxPoint x="760" y="465" as="targetPoint" />
          </mxGeometry>
        </mxCell>
        <mxCell id="tJ4U4Pab3lAN5FSXyf53-58" value="" style="endArrow=none;html=1;rounded=0;entryX=1;entryY=1;entryDx=0;entryDy=0;exitX=0.189;exitY=0.767;exitDx=0;exitDy=0;exitPerimeter=0;" edge="1" parent="1" source="tJ4U4Pab3lAN5FSXyf53-56" target="tJ4U4Pab3lAN5FSXyf53-1">
          <mxGeometry width="50" height="50" relative="1" as="geometry">
            <mxPoint x="910" y="490" as="sourcePoint" />
            <mxPoint x="750" y="468" as="targetPoint" />
          </mxGeometry>
        </mxCell>
        <mxCell id="tJ4U4Pab3lAN5FSXyf53-59" value="" style="endArrow=none;html=1;rounded=0;entryX=1;entryY=0.5;entryDx=0;entryDy=0;exitX=0;exitY=0.75;exitDx=0;exitDy=0;" edge="1" parent="1" source="tJ4U4Pab3lAN5FSXyf53-2" target="tJ4U4Pab3lAN5FSXyf53-56">
          <mxGeometry width="50" height="50" relative="1" as="geometry">
            <mxPoint x="1224" y="480" as="sourcePoint" />
            <mxPoint x="1160" y="518" as="targetPoint" />
          </mxGeometry>
        </mxCell>
        <mxCell id="tJ4U4Pab3lAN5FSXyf53-60" value="1" style="text;html=1;align=center;verticalAlign=middle;resizable=0;points=[];autosize=1;strokeColor=none;fillColor=none;" vertex="1" parent="1">
          <mxGeometry x="870" y="450" width="30" height="30" as="geometry" />
        </mxCell>
        <mxCell id="tJ4U4Pab3lAN5FSXyf53-61" value="1" style="text;html=1;align=center;verticalAlign=middle;resizable=0;points=[];autosize=1;strokeColor=none;fillColor=none;" vertex="1" parent="1">
          <mxGeometry x="990" y="450" width="30" height="30" as="geometry" />
        </mxCell>
        <mxCell id="tJ4U4Pab3lAN5FSXyf53-62" value="Server" style="rhombus;whiteSpace=wrap;html=1;" vertex="1" parent="1">
          <mxGeometry x="1190" y="570" width="70" height="50" as="geometry" />
        </mxCell>
        <mxCell id="tJ4U4Pab3lAN5FSXyf53-63" value="Customer" style="rounded=0;whiteSpace=wrap;html=1;" vertex="1" parent="1">
          <mxGeometry x="1180" y="740" width="110" height="50" as="geometry" />
        </mxCell>
        <mxCell id="tJ4U4Pab3lAN5FSXyf53-64" value="FName" style="html=1;align=center;verticalAlign=top;rounded=1;absoluteArcSize=1;arcSize=140;dashed=0;whiteSpace=wrap;" vertex="1" parent="1">
          <mxGeometry x="1290" y="660" width="100" height="40" as="geometry" />
        </mxCell>
        <mxCell id="tJ4U4Pab3lAN5FSXyf53-65" value="LName" style="html=1;align=center;verticalAlign=top;rounded=1;absoluteArcSize=1;arcSize=140;dashed=0;whiteSpace=wrap;" vertex="1" parent="1">
          <mxGeometry x="1380" y="700" width="100" height="40" as="geometry" />
        </mxCell>
        <mxCell id="tJ4U4Pab3lAN5FSXyf53-66" value="Office Addr" style="html=1;align=center;verticalAlign=top;rounded=1;absoluteArcSize=1;arcSize=140;dashed=0;whiteSpace=wrap;" vertex="1" parent="1">
          <mxGeometry x="1360" y="745" width="100" height="40" as="geometry" />
        </mxCell>
        <mxCell id="tJ4U4Pab3lAN5FSXyf53-67" value="Home Addr" style="html=1;align=center;verticalAlign=top;rounded=1;absoluteArcSize=1;arcSize=140;dashed=0;whiteSpace=wrap;" vertex="1" parent="1">
          <mxGeometry x="1335" y="790" width="100" height="40" as="geometry" />
        </mxCell>
        <mxCell id="tJ4U4Pab3lAN5FSXyf53-68" value="DOB" style="html=1;align=center;verticalAlign=top;rounded=1;absoluteArcSize=1;arcSize=140;dashed=0;whiteSpace=wrap;" vertex="1" parent="1">
          <mxGeometry x="1245" y="830" width="100" height="40" as="geometry" />
        </mxCell>
        <mxCell id="tJ4U4Pab3lAN5FSXyf53-69" value="Phone" style="html=1;align=center;verticalAlign=top;rounded=1;absoluteArcSize=1;arcSize=140;dashed=0;whiteSpace=wrap;" vertex="1" parent="1">
          <mxGeometry x="1255" y="835" width="80" height="30" as="geometry" />
        </mxCell>
        <mxCell id="tJ4U4Pab3lAN5FSXyf53-70" value="Email" style="html=1;align=center;verticalAlign=top;rounded=1;absoluteArcSize=1;arcSize=140;dashed=0;whiteSpace=wrap;" vertex="1" parent="1">
          <mxGeometry x="1130" y="830" width="100" height="40" as="geometry" />
        </mxCell>
        <mxCell id="tJ4U4Pab3lAN5FSXyf53-71" value="&lt;u&gt;Code&lt;/u&gt;" style="html=1;align=center;verticalAlign=top;rounded=1;absoluteArcSize=1;arcSize=140;dashed=0;whiteSpace=wrap;" vertex="1" parent="1">
          <mxGeometry x="1020" y="810" width="100" height="40" as="geometry" />
        </mxCell>
        <mxCell id="tJ4U4Pab3lAN5FSXyf53-72" value="" style="endArrow=none;html=1;rounded=0;entryX=0.5;entryY=0;entryDx=0;entryDy=0;exitX=0.609;exitY=1.02;exitDx=0;exitDy=0;exitPerimeter=0;" edge="1" parent="1" source="tJ4U4Pab3lAN5FSXyf53-2" target="tJ4U4Pab3lAN5FSXyf53-62">
          <mxGeometry width="50" height="50" relative="1" as="geometry">
            <mxPoint x="1194" y="490" as="sourcePoint" />
            <mxPoint x="1130" y="528" as="targetPoint" />
          </mxGeometry>
        </mxCell>
        <mxCell id="tJ4U4Pab3lAN5FSXyf53-73" value="" style="endArrow=none;html=1;rounded=0;entryX=0.4;entryY=0;entryDx=0;entryDy=0;exitX=0.5;exitY=1;exitDx=0;exitDy=0;entryPerimeter=0;" edge="1" parent="1" source="tJ4U4Pab3lAN5FSXyf53-62" target="tJ4U4Pab3lAN5FSXyf53-63">
          <mxGeometry width="50" height="50" relative="1" as="geometry">
            <mxPoint x="1222" y="510" as="sourcePoint" />
            <mxPoint x="1220" y="609" as="targetPoint" />
          </mxGeometry>
        </mxCell>
        <mxCell id="tJ4U4Pab3lAN5FSXyf53-74" value="" style="endArrow=none;html=1;rounded=0;entryX=0.655;entryY=-0.02;entryDx=0;entryDy=0;exitX=0.25;exitY=1;exitDx=0;exitDy=0;entryPerimeter=0;" edge="1" parent="1" source="tJ4U4Pab3lAN5FSXyf53-64" target="tJ4U4Pab3lAN5FSXyf53-63">
          <mxGeometry width="50" height="50" relative="1" as="geometry">
            <mxPoint x="1220" y="680" as="sourcePoint" />
            <mxPoint x="1220" y="803" as="targetPoint" />
          </mxGeometry>
        </mxCell>
        <mxCell id="tJ4U4Pab3lAN5FSXyf53-75" value="" style="endArrow=none;html=1;rounded=0;entryX=1;entryY=0;entryDx=0;entryDy=0;exitX=0;exitY=0.5;exitDx=0;exitDy=0;" edge="1" parent="1" source="tJ4U4Pab3lAN5FSXyf53-65" target="tJ4U4Pab3lAN5FSXyf53-63">
          <mxGeometry width="50" height="50" relative="1" as="geometry">
            <mxPoint x="1333" y="720" as="sourcePoint" />
            <mxPoint x="1270" y="759" as="targetPoint" />
          </mxGeometry>
        </mxCell>
        <mxCell id="tJ4U4Pab3lAN5FSXyf53-76" value="" style="endArrow=none;html=1;rounded=0;entryX=1;entryY=0.25;entryDx=0;entryDy=0;exitX=0;exitY=0.5;exitDx=0;exitDy=0;" edge="1" parent="1" source="tJ4U4Pab3lAN5FSXyf53-66" target="tJ4U4Pab3lAN5FSXyf53-63">
          <mxGeometry width="50" height="50" relative="1" as="geometry">
            <mxPoint x="1410" y="730" as="sourcePoint" />
            <mxPoint x="1320" y="750" as="targetPoint" />
          </mxGeometry>
        </mxCell>
        <mxCell id="tJ4U4Pab3lAN5FSXyf53-77" value="" style="endArrow=none;html=1;rounded=0;entryX=1;entryY=0.5;entryDx=0;entryDy=0;exitX=0.09;exitY=0.05;exitDx=0;exitDy=0;exitPerimeter=0;" edge="1" parent="1" source="tJ4U4Pab3lAN5FSXyf53-67" target="tJ4U4Pab3lAN5FSXyf53-63">
          <mxGeometry width="50" height="50" relative="1" as="geometry">
            <mxPoint x="1370" y="762" as="sourcePoint" />
            <mxPoint x="1300" y="750" as="targetPoint" />
          </mxGeometry>
        </mxCell>
        <mxCell id="tJ4U4Pab3lAN5FSXyf53-78" value="" style="endArrow=none;html=1;rounded=0;entryX=1;entryY=1;entryDx=0;entryDy=0;exitX=0.5;exitY=0;exitDx=0;exitDy=0;" edge="1" parent="1" source="tJ4U4Pab3lAN5FSXyf53-68" target="tJ4U4Pab3lAN5FSXyf53-63">
          <mxGeometry width="50" height="50" relative="1" as="geometry">
            <mxPoint x="1354" y="797" as="sourcePoint" />
            <mxPoint x="1300" y="770" as="targetPoint" />
          </mxGeometry>
        </mxCell>
        <mxCell id="tJ4U4Pab3lAN5FSXyf53-79" value="" style="endArrow=none;html=1;rounded=0;entryX=0;entryY=0.75;entryDx=0;entryDy=0;exitX=1;exitY=0.5;exitDx=0;exitDy=0;" edge="1" parent="1" source="tJ4U4Pab3lAN5FSXyf53-71" target="tJ4U4Pab3lAN5FSXyf53-63">
          <mxGeometry width="50" height="50" relative="1" as="geometry">
            <mxPoint x="1295" y="850" as="sourcePoint" />
            <mxPoint x="1290" y="810" as="targetPoint" />
          </mxGeometry>
        </mxCell>
        <mxCell id="tJ4U4Pab3lAN5FSXyf53-80" value="" style="endArrow=none;html=1;rounded=0;entryX=0.25;entryY=1;entryDx=0;entryDy=0;exitX=0.64;exitY=-0.075;exitDx=0;exitDy=0;exitPerimeter=0;" edge="1" parent="1" source="tJ4U4Pab3lAN5FSXyf53-70" target="tJ4U4Pab3lAN5FSXyf53-63">
          <mxGeometry width="50" height="50" relative="1" as="geometry">
            <mxPoint x="1230" y="849" as="sourcePoint" />
            <mxPoint x="1265" y="810" as="targetPoint" />
          </mxGeometry>
        </mxCell>
        <mxCell id="tJ4U4Pab3lAN5FSXyf53-81" value="1" style="text;html=1;align=center;verticalAlign=middle;resizable=0;points=[];autosize=1;strokeColor=none;fillColor=none;" vertex="1" parent="1">
          <mxGeometry x="1190" y="520" width="30" height="30" as="geometry" />
        </mxCell>
        <mxCell id="tJ4U4Pab3lAN5FSXyf53-82" value="n" style="text;html=1;align=center;verticalAlign=middle;resizable=0;points=[];autosize=1;strokeColor=none;fillColor=none;" vertex="1" parent="1">
          <mxGeometry x="1190" y="650" width="30" height="30" as="geometry" />
        </mxCell>
        <mxCell id="tJ4U4Pab3lAN5FSXyf53-83" value="" style="endArrow=none;html=1;rounded=0;entryX=0;entryY=0.5;entryDx=0;entryDy=0;exitX=1;exitY=0.5;exitDx=0;exitDy=0;" edge="1" parent="1" source="tJ4U4Pab3lAN5FSXyf53-84" target="tJ4U4Pab3lAN5FSXyf53-63">
          <mxGeometry width="50" height="50" relative="1" as="geometry">
            <mxPoint x="940" y="765" as="sourcePoint" />
            <mxPoint x="1220" y="810" as="targetPoint" />
          </mxGeometry>
        </mxCell>
        <mxCell id="tJ4U4Pab3lAN5FSXyf53-84" value="Has" style="rhombus;whiteSpace=wrap;html=1;" vertex="1" parent="1">
          <mxGeometry x="870" y="740" width="60" height="50" as="geometry" />
        </mxCell>
        <mxCell id="tJ4U4Pab3lAN5FSXyf53-85" value="Account" style="rounded=0;whiteSpace=wrap;html=1;" vertex="1" parent="1">
          <mxGeometry x="650" y="740" width="110" height="50" as="geometry" />
        </mxCell>
        <mxCell id="tJ4U4Pab3lAN5FSXyf53-86" value="" style="endArrow=none;html=1;rounded=0;entryX=0;entryY=0.5;entryDx=0;entryDy=0;exitX=1;exitY=0.5;exitDx=0;exitDy=0;" edge="1" parent="1" source="tJ4U4Pab3lAN5FSXyf53-85" target="tJ4U4Pab3lAN5FSXyf53-84">
          <mxGeometry width="50" height="50" relative="1" as="geometry">
            <mxPoint x="940" y="760" as="sourcePoint" />
            <mxPoint x="1190" y="760" as="targetPoint" />
          </mxGeometry>
        </mxCell>
        <mxCell id="tJ4U4Pab3lAN5FSXyf53-87" value="" style="endArrow=none;html=1;rounded=0;entryX=0.117;entryY=0.6;entryDx=0;entryDy=0;exitX=0.982;exitY=0.64;exitDx=0;exitDy=0;entryPerimeter=0;exitPerimeter=0;" edge="1" parent="1" source="tJ4U4Pab3lAN5FSXyf53-85" target="tJ4U4Pab3lAN5FSXyf53-84">
          <mxGeometry width="50" height="50" relative="1" as="geometry">
            <mxPoint x="755" y="770" as="sourcePoint" />
            <mxPoint x="870" y="770" as="targetPoint" />
          </mxGeometry>
        </mxCell>
        <mxCell id="tJ4U4Pab3lAN5FSXyf53-88" value="1" style="text;html=1;align=center;verticalAlign=middle;resizable=0;points=[];autosize=1;strokeColor=none;fillColor=none;" vertex="1" parent="1">
          <mxGeometry x="950" y="740" width="30" height="30" as="geometry" />
        </mxCell>
        <mxCell id="tJ4U4Pab3lAN5FSXyf53-89" value="n" style="text;html=1;align=center;verticalAlign=middle;resizable=0;points=[];autosize=1;strokeColor=none;fillColor=none;" vertex="1" parent="1">
          <mxGeometry x="815" y="740" width="30" height="30" as="geometry" />
        </mxCell>
        <mxCell id="tJ4U4Pab3lAN5FSXyf53-90" value="&lt;u&gt;Number&lt;/u&gt;" style="html=1;align=center;verticalAlign=top;rounded=1;absoluteArcSize=1;arcSize=140;dashed=0;whiteSpace=wrap;" vertex="1" parent="1">
          <mxGeometry x="490" y="740" width="100" height="40" as="geometry" />
        </mxCell>
        <mxCell id="tJ4U4Pab3lAN5FSXyf53-91" value="" style="endArrow=none;html=1;rounded=0;entryX=0;entryY=0.5;entryDx=0;entryDy=0;exitX=1;exitY=0.25;exitDx=0;exitDy=0;" edge="1" parent="1" source="tJ4U4Pab3lAN5FSXyf53-90" target="tJ4U4Pab3lAN5FSXyf53-85">
          <mxGeometry width="50" height="50" relative="1" as="geometry">
            <mxPoint x="1040" y="760" as="sourcePoint" />
            <mxPoint x="1290" y="760" as="targetPoint" />
          </mxGeometry>
        </mxCell>
        <mxCell id="tJ4U4Pab3lAN5FSXyf53-92" value="" style="ellipse;whiteSpace=wrap;html=1;align=center;aspect=fixed;fillColor=none;strokeColor=none;resizable=0;perimeter=centerPerimeter;rotatable=0;allowArrows=0;points=[];outlineConnect=1;" vertex="1" parent="1">
          <mxGeometry x="880" y="920" width="10" height="10" as="geometry" />
        </mxCell>
        <mxCell id="tJ4U4Pab3lAN5FSXyf53-93" value="d" style="ellipse;whiteSpace=wrap;html=1;" vertex="1" parent="1">
          <mxGeometry x="690" y="860" width="30" height="30" as="geometry" />
        </mxCell>
        <mxCell id="tJ4U4Pab3lAN5FSXyf53-94" value="" style="endArrow=none;html=1;rounded=0;entryX=0.5;entryY=0;entryDx=0;entryDy=0;exitX=0.5;exitY=1;exitDx=0;exitDy=0;" edge="1" parent="1" source="tJ4U4Pab3lAN5FSXyf53-85" target="tJ4U4Pab3lAN5FSXyf53-93">
          <mxGeometry width="50" height="50" relative="1" as="geometry">
            <mxPoint x="730" y="860" as="sourcePoint" />
            <mxPoint x="790" y="875" as="targetPoint" />
          </mxGeometry>
        </mxCell>
        <mxCell id="tJ4U4Pab3lAN5FSXyf53-95" value="" style="endArrow=none;html=1;rounded=0;exitX=0.5;exitY=1;exitDx=0;exitDy=0;" edge="1" parent="1">
          <mxGeometry width="50" height="50" relative="1" as="geometry">
            <mxPoint x="710" y="790" as="sourcePoint" />
            <mxPoint x="710" y="860" as="targetPoint" />
          </mxGeometry>
        </mxCell>
        <mxCell id="tJ4U4Pab3lAN5FSXyf53-96" value="Checking Account" style="rounded=0;whiteSpace=wrap;html=1;" vertex="1" parent="1">
          <mxGeometry x="670" y="980" width="100" height="40" as="geometry" />
        </mxCell>
        <mxCell id="tJ4U4Pab3lAN5FSXyf53-97" value="Loan" style="rounded=0;whiteSpace=wrap;html=1;" vertex="1" parent="1">
          <mxGeometry x="860" y="950" width="80" height="40" as="geometry" />
        </mxCell>
        <mxCell id="tJ4U4Pab3lAN5FSXyf53-98" value="Saving Account" style="rounded=0;whiteSpace=wrap;html=1;" vertex="1" parent="1">
          <mxGeometry x="495" y="980" width="100" height="40" as="geometry" />
        </mxCell>
        <mxCell id="tJ4U4Pab3lAN5FSXyf53-99" value="" style="endArrow=none;html=1;rounded=0;entryX=0;entryY=1;entryDx=0;entryDy=0;exitX=0.5;exitY=0;exitDx=0;exitDy=0;" edge="1" parent="1" source="tJ4U4Pab3lAN5FSXyf53-98" target="tJ4U4Pab3lAN5FSXyf53-93">
          <mxGeometry width="50" height="50" relative="1" as="geometry">
            <mxPoint x="700" y="810" as="sourcePoint" />
            <mxPoint x="700" y="880" as="targetPoint" />
          </mxGeometry>
        </mxCell>
        <mxCell id="tJ4U4Pab3lAN5FSXyf53-100" value="" style="endArrow=none;html=1;rounded=0;entryX=0.5;entryY=1;entryDx=0;entryDy=0;exitX=0.39;exitY=0.025;exitDx=0;exitDy=0;exitPerimeter=0;" edge="1" parent="1" source="tJ4U4Pab3lAN5FSXyf53-96" target="tJ4U4Pab3lAN5FSXyf53-93">
          <mxGeometry width="50" height="50" relative="1" as="geometry">
            <mxPoint x="660" y="994" as="sourcePoint" />
            <mxPoint x="809" y="900" as="targetPoint" />
          </mxGeometry>
        </mxCell>
        <mxCell id="tJ4U4Pab3lAN5FSXyf53-101" value="" style="endArrow=none;html=1;rounded=0;entryX=1;entryY=1;entryDx=0;entryDy=0;exitX=0.5;exitY=0;exitDx=0;exitDy=0;" edge="1" parent="1" source="tJ4U4Pab3lAN5FSXyf53-97" target="tJ4U4Pab3lAN5FSXyf53-93">
          <mxGeometry width="50" height="50" relative="1" as="geometry">
            <mxPoint x="704" y="1021" as="sourcePoint" />
            <mxPoint x="700" y="930" as="targetPoint" />
          </mxGeometry>
        </mxCell>
        <mxCell id="tJ4U4Pab3lAN5FSXyf53-102" value="" style="shape=requiredInterface;html=1;verticalLabelPosition=bottom;sketch=0;rotation=135;" vertex="1" parent="1">
          <mxGeometry x="630" y="910" width="21.46" height="20" as="geometry" />
        </mxCell>
        <mxCell id="tJ4U4Pab3lAN5FSXyf53-103" value="" style="shape=requiredInterface;html=1;verticalLabelPosition=bottom;sketch=0;rotation=85;" vertex="1" parent="1">
          <mxGeometry x="694.59" y="935.9" width="26.85" height="20" as="geometry" />
        </mxCell>
        <mxCell id="tJ4U4Pab3lAN5FSXyf53-104" value="" style="shape=requiredInterface;html=1;verticalLabelPosition=bottom;sketch=0;rotation=30;" vertex="1" parent="1">
          <mxGeometry x="780" y="900" width="30" height="20" as="geometry" />
        </mxCell>
        <mxCell id="tJ4U4Pab3lAN5FSXyf53-105" value="Taken Date" style="html=1;align=center;verticalAlign=top;rounded=1;absoluteArcSize=1;arcSize=140;dashed=0;whiteSpace=wrap;" vertex="1" parent="1">
          <mxGeometry x="940" y="880" width="90" height="40" as="geometry" />
        </mxCell>
        <mxCell id="tJ4U4Pab3lAN5FSXyf53-106" value="Balance Due" style="html=1;align=center;verticalAlign=top;rounded=1;absoluteArcSize=1;arcSize=140;dashed=0;whiteSpace=wrap;" vertex="1" parent="1">
          <mxGeometry x="1000" y="935.9" width="90" height="40" as="geometry" />
        </mxCell>
        <mxCell id="tJ4U4Pab3lAN5FSXyf53-107" value="Insert Rate" style="html=1;align=center;verticalAlign=top;rounded=1;absoluteArcSize=1;arcSize=140;dashed=0;whiteSpace=wrap;" vertex="1" parent="1">
          <mxGeometry x="1010" y="1000" width="90" height="40" as="geometry" />
        </mxCell>
        <mxCell id="tJ4U4Pab3lAN5FSXyf53-108" value="" style="endArrow=none;html=1;rounded=0;entryX=0.75;entryY=0;entryDx=0;entryDy=0;" edge="1" parent="1" source="tJ4U4Pab3lAN5FSXyf53-105" target="tJ4U4Pab3lAN5FSXyf53-97">
          <mxGeometry width="50" height="50" relative="1" as="geometry">
            <mxPoint x="1034" y="994" as="sourcePoint" />
            <mxPoint x="850" y="930" as="targetPoint" />
          </mxGeometry>
        </mxCell>
        <mxCell id="tJ4U4Pab3lAN5FSXyf53-109" value="" style="endArrow=none;html=1;rounded=0;entryX=1;entryY=0.25;entryDx=0;entryDy=0;exitX=0;exitY=0.5;exitDx=0;exitDy=0;" edge="1" parent="1" source="tJ4U4Pab3lAN5FSXyf53-106" target="tJ4U4Pab3lAN5FSXyf53-97">
          <mxGeometry width="50" height="50" relative="1" as="geometry">
            <mxPoint x="979" y="930" as="sourcePoint" />
            <mxPoint x="940" y="960" as="targetPoint" />
          </mxGeometry>
        </mxCell>
        <mxCell id="tJ4U4Pab3lAN5FSXyf53-110" value="" style="endArrow=none;html=1;rounded=0;entryX=1;entryY=0.5;entryDx=0;entryDy=0;exitX=0.1;exitY=0.075;exitDx=0;exitDy=0;exitPerimeter=0;" edge="1" parent="1" source="tJ4U4Pab3lAN5FSXyf53-107" target="tJ4U4Pab3lAN5FSXyf53-97">
          <mxGeometry width="50" height="50" relative="1" as="geometry">
            <mxPoint x="1030" y="990" as="sourcePoint" />
            <mxPoint x="970" y="994" as="targetPoint" />
          </mxGeometry>
        </mxCell>
        <mxCell id="tJ4U4Pab3lAN5FSXyf53-111" value="Balance" style="html=1;align=center;verticalAlign=top;rounded=1;absoluteArcSize=1;arcSize=140;dashed=0;whiteSpace=wrap;" vertex="1" parent="1">
          <mxGeometry x="650" y="1090" width="90" height="40" as="geometry" />
        </mxCell>
        <mxCell id="tJ4U4Pab3lAN5FSXyf53-112" value="Opened Date" style="html=1;align=center;verticalAlign=top;rounded=1;absoluteArcSize=1;arcSize=140;dashed=0;whiteSpace=wrap;" vertex="1" parent="1">
          <mxGeometry x="755" y="1090" width="90" height="40" as="geometry" />
        </mxCell>
        <mxCell id="tJ4U4Pab3lAN5FSXyf53-113" value="" style="endArrow=none;html=1;rounded=0;entryX=0.41;entryY=1.025;entryDx=0;entryDy=0;exitX=0.367;exitY=-0.025;exitDx=0;exitDy=0;exitPerimeter=0;entryPerimeter=0;" edge="1" parent="1" source="tJ4U4Pab3lAN5FSXyf53-111" target="tJ4U4Pab3lAN5FSXyf53-96">
          <mxGeometry width="50" height="50" relative="1" as="geometry">
            <mxPoint x="1039" y="1013" as="sourcePoint" />
            <mxPoint x="960" y="980" as="targetPoint" />
          </mxGeometry>
        </mxCell>
        <mxCell id="tJ4U4Pab3lAN5FSXyf53-114" value="" style="endArrow=none;html=1;rounded=0;entryX=0.62;entryY=1.025;entryDx=0;entryDy=0;exitX=0.5;exitY=0;exitDx=0;exitDy=0;entryPerimeter=0;" edge="1" parent="1" source="tJ4U4Pab3lAN5FSXyf53-112" target="tJ4U4Pab3lAN5FSXyf53-96">
          <mxGeometry width="50" height="50" relative="1" as="geometry">
            <mxPoint x="690" y="1138" as="sourcePoint" />
            <mxPoint x="718" y="1070" as="targetPoint" />
          </mxGeometry>
        </mxCell>
        <mxCell id="tJ4U4Pab3lAN5FSXyf53-115" value="Balance" style="html=1;align=center;verticalAlign=top;rounded=1;absoluteArcSize=1;arcSize=140;dashed=0;whiteSpace=wrap;" vertex="1" parent="1">
          <mxGeometry x="495" y="1070" width="90" height="40" as="geometry" />
        </mxCell>
        <mxCell id="tJ4U4Pab3lAN5FSXyf53-116" value="Balance" style="html=1;align=center;verticalAlign=top;rounded=1;absoluteArcSize=1;arcSize=140;dashed=0;whiteSpace=wrap;" vertex="1" parent="1">
          <mxGeometry x="370" y="1070" width="90" height="40" as="geometry" />
        </mxCell>
        <mxCell id="tJ4U4Pab3lAN5FSXyf53-117" value="Balance" style="html=1;align=center;verticalAlign=top;rounded=1;absoluteArcSize=1;arcSize=140;dashed=0;whiteSpace=wrap;" vertex="1" parent="1">
          <mxGeometry x="370" y="905" width="90" height="40" as="geometry" />
        </mxCell>
        <mxCell id="tJ4U4Pab3lAN5FSXyf53-118" value="" style="endArrow=none;html=1;rounded=0;entryX=0.656;entryY=0.975;entryDx=0;entryDy=0;exitX=0.25;exitY=0;exitDx=0;exitDy=0;entryPerimeter=0;" edge="1" parent="1" source="tJ4U4Pab3lAN5FSXyf53-98" target="tJ4U4Pab3lAN5FSXyf53-117">
          <mxGeometry width="50" height="50" relative="1" as="geometry">
            <mxPoint x="690" y="1128" as="sourcePoint" />
            <mxPoint x="718" y="1060" as="targetPoint" />
          </mxGeometry>
        </mxCell>
        <mxCell id="tJ4U4Pab3lAN5FSXyf53-119" value="" style="endArrow=none;html=1;rounded=0;entryX=0.25;entryY=1;entryDx=0;entryDy=0;exitX=0.5;exitY=0;exitDx=0;exitDy=0;" edge="1" parent="1" source="tJ4U4Pab3lAN5FSXyf53-116" target="tJ4U4Pab3lAN5FSXyf53-98">
          <mxGeometry width="50" height="50" relative="1" as="geometry">
            <mxPoint x="561" y="996" as="sourcePoint" />
            <mxPoint x="470" y="960" as="targetPoint" />
          </mxGeometry>
        </mxCell>
        <mxCell id="tJ4U4Pab3lAN5FSXyf53-120" value="" style="endArrow=none;html=1;rounded=0;entryX=0.5;entryY=1;entryDx=0;entryDy=0;exitX=0.5;exitY=0;exitDx=0;exitDy=0;" edge="1" parent="1" source="tJ4U4Pab3lAN5FSXyf53-115" target="tJ4U4Pab3lAN5FSXyf53-98">
          <mxGeometry width="50" height="50" relative="1" as="geometry">
            <mxPoint x="470" y="1090" as="sourcePoint" />
            <mxPoint x="575" y="1040" as="targetPoint" />
          </mxGeometry>
        </mxCell>
      </root>
    </mxGraphModel>
  </diagram>
</mxfile>
